<svg width="16" height="13" fill="none" xmlns="http://www.w3.org/2000/svg"><path d="M8.005 11.343a.726.726 0 01-1.19.559L2.841 8.61H.727A.726.726 0 010 7.884V4.989c0-.401.325-.727.727-.727h2.115L6.815.971a.725.725 0 011.19.56v9.812zm2.792-1.136a.726.726 0 01-.566-.21l-.097-.098a.726.726 0 01-.07-.947 4.192 4.192 0 00.831-2.515c0-.981-.326-1.902-.943-2.662a.726.726 0 01.05-.972l.097-.097a.728.728 0 011.076.054 5.746 5.746 0 011.309 3.677c0 1.265-.4 2.468-1.157 3.48a.727.727 0 01-.53.29zm3.004 2.246a.727.727 0 01-.525.257h-.03a.726.726 0 01-.514-.212l-.095-.096a.727.727 0 01-.043-.981 7.756 7.756 0 001.818-4.984 7.735 7.735 0 00-1.946-5.133.727.727 0 01.03-.995l.095-.095a.727.727 0 011.058.03A9.317 9.317 0 0116 6.437c0 2.2-.78 4.336-2.199 6.016z" fill="#fff"/></svg>