<svg width="80" height="60" viewBox="0 0 80 60" fill="none" xmlns="http://www.w3.org/2000/svg">
<path d="M0.27471 23.4112C0.744258 18.1829 2.55723 9.33256 3.40503 5.56092C2.23116 7.19963 1.15511 13.1367 0.763823 15.9004C0.763823 16.063 0.685565 16.0955 0.372533 14.925C0.0595013 13.7545 0.242103 9.82028 0.372533 7.99948C1.15511 1.85431 1.64422 0.321864 2.52463 0.39117C3.76371 0.488713 6.71143 0.839866 8.58962 1.46414C10.4678 2.08841 12.3721 3.34996 13.0895 3.9027C13.7155 4.3709 13.7416 5.33332 13.6764 5.75601L10.2526 19.0218C11.0352 17.6237 13.0503 14.2812 14.8503 12.0963C17.1002 9.36508 18.7632 7.41423 20.7196 5.36584C22.6761 3.31744 29.8171 6.14618 31.8714 6.73143C33.5148 7.19964 33.5996 8.42217 33.4365 8.97491L28.741 23.8989C29.5888 22.5983 31.9496 19.0218 34.6104 15.1201C37.9364 10.243 42.6318 7.02406 43.4144 6.73143C44.197 6.4388 45.3709 7.51177 44.9796 8.58474C44.6665 9.44311 45.11 9.91782 45.3709 10.0479C44.9144 9.95033 44.7252 9.93083 47.6208 10.6331C51.2402 11.511 51.8271 11.4135 51.925 13.7545C52.0228 16.0955 47.8164 23.6063 45.3709 32.5802C42.9253 41.5541 40.6754 51.9911 41.7514 55.7953C42.8275 59.5995 44.7839 55.4051 48.7946 47.8944C52.0032 41.8857 54.7618 33.4906 55.74 30.0441C55.74 28.8736 55.877 25.5571 56.4248 21.6554C56.9726 17.7537 59.979 9.30005 61.4137 5.56092C61.5116 5.10572 61.4724 4.46845 60.5333 5.56092C59.5942 6.6534 57.9247 10.9583 57.2074 12.9742C57.3052 11.446 57.6965 7.68735 58.4791 4.87812C59.4573 1.3666 60.142 0.683795 61.9028 0.0985403C63.3115 -0.369664 65.881 0.943909 66.9896 1.65922C68.2613 2.47207 70.7851 4.33188 70.7069 5.26829C70.609 6.4388 65.0332 21.9481 63.2724 28.6785C61.5116 35.4089 64.0549 34.8237 65.6201 33.9458C67.1853 33.0679 70.5112 29.1662 74.2285 23.9964C77.9457 18.8267 78.337 16.7783 78.5327 16.3881C78.7283 15.998 78.924 16.0955 79.4131 16.2906C79.8044 16.4467 79.9674 17.5261 80 18.0464C79.9022 18.5666 79.4913 20.0167 78.6305 21.6554C77.5544 23.7038 75.8915 26.5326 70.3156 33.7507C65.8549 39.5252 60.4355 37.3923 58.2834 35.604C58.3486 35.4089 57.7747 36.8135 54.9575 43.9927C52.1402 51.1718 48.1099 56.283 46.4469 57.9412C43.8383 60.3148 37.995 62.6038 35.4908 52.7715C32.9865 42.9392 36.5342 25.7197 38.6211 18.339C37.7081 19.2819 34.806 22.7479 30.5018 29.0687C26.1977 35.3894 25.1868 41.0014 25.2194 43.0172C24.4369 42.7896 22.0696 41.6907 18.861 39.1155C14.8503 35.8966 17.0023 28.776 17.9806 23.8014C18.7632 19.8216 19.5457 16.7458 19.8392 15.7053C20.5892 14.2422 21.4239 11.9597 18.7632 14.5348C15.4372 17.7537 12.9916 20.5825 9.95913 26.2399C7.53314 30.7659 6.92664 36.1893 6.92664 38.3352C5.78537 38.3677 3.15069 37.7694 1.74205 35.1163C-0.0187573 31.7998 -0.312225 29.9465 0.27471 23.4112Z" fill="white"/>
</svg>