<?xml version="1.0" standalone="no"?>
<!DOCTYPE svg PUBLIC "-//W3C//DTD SVG 20010904//EN"
 "http://www.w3.org/TR/2001/REC-SVG-20010904/DTD/svg10.dtd">
<svg version="1.0" xmlns="http://www.w3.org/2000/svg"
 width="1280.000000pt" height="1280.000000pt" viewBox="0 0 1280.000000 1280.000000"
 preserveAspectRatio="xMidYMid meet">
<metadata>
Created by potrace 1.11, written by Peter Selinger 2001-2013
</metadata>
<g transform="translate(0.000000,1280.000000) scale(0.100000,-0.100000)"
fill="#000000" stroke="none">
<path d="M9885 11177 c-38 -13 -86 -32 -105 -42 -19 -11 -37 -19 -40 -20 -26
-2 -169 -139 -170 -162 0 -7 -4 -13 -9 -13 -9 0 -70 -119 -101 -198 -29 -77
-90 -266 -105 -327 -3 -11 -16 -65 -30 -120 -14 -55 -28 -115 -31 -134 -3 -18
-8 -42 -10 -52 -2 -11 -6 -27 -8 -38 -2 -10 -7 -36 -10 -57 -8 -51 -18 -104
-23 -129 -2 -11 -6 -31 -8 -45 -2 -23 -11 -81 -20 -140 -9 -58 -16 -110 -20
-150 -2 -24 -7 -59 -9 -79 -7 -53 -15 -127 -22 -206 -4 -38 -8 -80 -9 -93 -1
-13 1 -20 6 -15 6 7 34 76 43 108 1 6 9 26 18 45 8 19 21 53 28 75 7 22 15 45
19 50 3 6 7 19 8 29 2 11 11 28 20 38 9 10 13 18 10 18 -5 0 3 23 38 105 146
344 212 488 226 493 5 2 7 7 4 12 -3 5 0 14 7 22 7 7 20 27 28 43 42 85 156
212 188 209 6 -1 17 -2 23 -3 30 -3 -7 -143 -89 -335 -9 -22 -17 -44 -17 -50
-1 -6 -4 -18 -8 -26 -11 -27 -58 -154 -72 -195 -7 -22 -36 -105 -64 -185 -29
-80 -72 -206 -97 -280 -25 -74 -49 -143 -55 -152 -5 -10 -9 -27 -9 -38 0 -11
-4 -20 -8 -20 -5 0 -9 -6 -10 -12 -1 -20 -11 -61 -21 -88 -5 -14 -33 -99 -61
-190 -29 -91 -54 -172 -57 -180 -3 -8 -7 -22 -8 -30 -2 -8 -13 -46 -25 -84
-12 -38 -23 -76 -25 -85 -2 -9 -8 -31 -14 -49 -5 -18 -10 -33 -10 -35 0 -1 -2
-9 -5 -17 -6 -17 -34 -124 -41 -155 -7 -31 -13 -55 -29 -121 -16 -67 -26 -111
-30 -134 -1 -8 -6 -28 -9 -45 -4 -16 -9 -43 -12 -60 -3 -16 -7 -41 -10 -55 -3
-14 -7 -46 -10 -73 -3 -26 -7 -58 -10 -70 -3 -12 -8 -43 -10 -69 -5 -46 -9
-88 -19 -173 -7 -52 -19 -174 -20 -202 -1 -12 -5 -25 -8 -29 -4 -3 -3 -17 2
-30 5 -13 6 -24 2 -24 -4 0 -8 -15 -9 -32 -1 -18 -4 -62 -7 -98 -6 -82 -16
-264 -20 -351 -2 -36 -6 -71 -10 -77 -4 -7 -3 -12 2 -12 8 0 8 -32 -2 -130 -2
-25 -14 -76 -26 -114 -12 -38 -23 -76 -25 -85 -10 -43 -210 -658 -232 -711 -3
-8 -7 -18 -8 -22 -2 -5 -3 -9 -5 -10 -1 -2 -3 -10 -5 -18 -1 -8 -26 -77 -54
-153 -28 -77 -51 -145 -51 -153 0 -8 -4 -14 -10 -14 -5 0 -10 -7 -10 -16 0 -9
-23 -74 -51 -145 -28 -72 -52 -135 -53 -142 -2 -7 -8 -23 -14 -37 -6 -14 -34
-83 -63 -155 -28 -71 -57 -143 -65 -160 -41 -95 -48 -111 -48 -120 -1 -5 -3
-12 -7 -15 -3 -3 -15 -30 -28 -60 -13 -30 -33 -77 -46 -105 -12 -27 -32 -72
-45 -100 -35 -80 -285 -582 -335 -675 -26 -47 -61 -112 -78 -145 -17 -33 -39
-72 -49 -87 -11 -16 -16 -28 -12 -28 3 0 2 -6 -4 -12 -5 -7 -36 -62 -68 -123
-31 -60 -61 -112 -66 -113 -4 -2 -8 -12 -8 -23 0 -10 -5 -19 -11 -19 -5 0 -7
-4 -4 -10 3 -5 1 -10 -4 -10 -6 0 -11 -7 -11 -15 0 -8 -5 -15 -11 -15 -5 0 -8
-4 -5 -8 2 -4 -11 -32 -30 -62 -18 -30 -34 -61 -34 -67 0 -7 -4 -13 -8 -13 -5
0 -14 -16 -22 -35 -8 -19 -17 -35 -22 -35 -4 0 -8 -4 -8 -9 0 -14 -63 -120
-139 -235 -36 -55 -70 -106 -76 -114 -5 -8 -17 -23 -25 -32 -8 -9 -32 -35 -53
-58 -89 -101 -178 -111 -236 -27 -27 40 -71 155 -78 205 -3 19 -8 37 -12 40
-3 3 -7 21 -8 40 -1 19 -5 69 -9 110 -14 157 -6 410 22 675 4 33 8 74 10 90 5
53 14 119 19 150 8 47 18 128 19 148 0 9 4 17 9 17 4 0 6 4 3 9 -3 5 -1 33 4
62 6 30 13 77 16 104 4 28 9 54 12 59 3 5 7 23 8 40 2 17 8 54 14 81 20 105
29 156 34 195 2 14 7 32 11 42 3 9 8 31 10 50 2 18 4 33 5 33 2 0 5 15 13 57
23 120 37 185 82 378 19 85 37 166 40 180 3 14 11 49 19 78 8 28 12 52 9 52
-3 0 0 7 7 15 7 8 10 15 7 15 -3 0 -1 15 4 33 9 30 34 134 44 187 3 14 10 36
15 50 6 14 17 54 24 90 8 36 26 110 41 165 14 55 27 107 29 115 1 8 5 22 8 30
6 15 46 168 53 203 2 10 9 32 14 50 6 18 18 59 27 92 9 33 19 67 22 75 3 8 4
18 4 23 -1 4 4 23 12 41 8 19 12 37 8 40 -3 3 1 6 8 6 7 0 11 3 8 6 -3 3 5 40
18 82 32 104 113 353 121 372 3 8 7 18 8 23 2 4 3 8 5 10 1 1 3 10 5 19 2 9
17 54 35 99 17 45 32 90 33 101 1 10 5 18 9 18 4 0 7 3 6 8 0 4 2 16 7 27 4
11 21 56 37 100 16 44 40 107 53 140 13 33 36 92 50 130 15 39 30 79 35 90 5
11 29 70 53 130 24 61 47 119 52 130 5 11 9 22 10 25 8 30 31 80 37 80 4 0 7
3 6 8 -3 9 21 79 37 112 7 14 23 48 34 77 12 28 26 64 33 80 6 15 12 33 14 38
1 6 32 84 69 174 79 195 168 458 188 556 24 112 13 277 -24 362 -19 45 -82
113 -105 113 -7 0 -14 4 -16 8 -5 15 -241 90 -262 84 -4 -2 -13 1 -20 7 -6 5
-27 11 -46 15 -39 6 -75 14 -75 16 0 1 -9 3 -20 5 -34 5 -63 12 -275 66 l-205
51 -30 41 c-34 48 -41 112 -20 182 35 119 -17 240 -128 294 -61 30 -107 25
-182 -18 -86 -49 -253 -166 -304 -212 -9 -8 -26 -22 -38 -30 -118 -84 -507
-450 -651 -614 -92 -105 -233 -281 -250 -311 -7 -13 -17 -24 -22 -24 -6 0 -10
-4 -10 -10 0 -10 -72 -115 -110 -159 -11 -13 -20 -30 -20 -37 0 -7 -3 -14 -7
-16 -5 -1 -32 -39 -61 -83 -28 -44 -58 -86 -65 -94 -6 -8 -21 -29 -32 -47 -31
-51 -299 -448 -306 -454 -3 -3 -8 -9 -10 -15 -7 -18 -303 -460 -312 -466 -5
-3 -7 -8 -6 -10 2 -2 -10 -24 -27 -49 -17 -25 -34 -52 -37 -60 -5 -13 -6 -12
-6 1 -1 9 10 50 23 90 38 119 96 300 110 349 8 25 36 113 62 195 26 83 48 152
49 155 0 3 16 52 35 110 18 58 35 110 36 115 1 6 19 62 39 125 20 63 38 120
39 125 3 13 86 275 93 295 3 8 7 20 9 27 1 6 14 49 29 95 15 46 28 90 30 98 2
8 11 35 20 60 9 25 18 52 20 60 5 22 45 152 52 170 3 8 7 20 8 25 2 6 13 39
25 75 24 72 31 99 32 118 1 6 6 12 11 12 6 0 8 3 4 6 -3 3 -1 18 5 33 9 24 19
73 18 96 0 14 -8 59 -10 63 -3 3 -7 20 -9 35 -5 51 -140 165 -216 182 -5 1
-17 5 -25 8 -19 7 -211 68 -225 72 -5 1 -19 5 -30 9 -77 29 -96 36 -103 36 -9
1 -112 30 -137 40 -22 9 -134 43 -150 46 -5 1 -56 14 -113 29 -56 14 -112 28
-125 31 -25 4 -57 12 -87 19 -37 9 -54 13 -130 25 -41 6 -86 14 -100 16 -14 3
-88 7 -165 8 -143 4 -225 -7 -298 -37 -20 -9 -38 -15 -40 -14 -5 5 -84 -62
-121 -102 -23 -25 -54 -59 -71 -76 -16 -17 -61 -67 -100 -109 -38 -43 -83 -93
-100 -111 -16 -18 -50 -56 -75 -85 -25 -29 -56 -64 -70 -80 -22 -24 -65 -74
-123 -144 -10 -11 -35 -41 -57 -66 -42 -50 -151 -179 -163 -195 -12 -16 -47
-58 -70 -85 -12 -14 -42 -50 -67 -80 -25 -30 -47 -57 -50 -60 -3 -3 -17 -21
-30 -40 -23 -32 -39 -54 -65 -84 -5 -7 -14 -19 -20 -28 -5 -8 -19 -28 -30 -44
-175 -252 -201 -291 -310 -464 -12 -19 -40 -64 -63 -100 -22 -36 -46 -77 -53
-92 -7 -16 -16 -28 -21 -28 -4 0 -8 -4 -8 -9 0 -12 -80 -149 -80 -138 0 5 9
45 21 90 12 45 23 92 25 104 2 12 8 33 13 45 5 13 9 26 10 31 0 4 1 8 2 10 0
1 2 9 4 17 1 8 7 33 13 55 6 22 13 52 16 67 2 15 7 31 10 36 5 8 7 17 21 86 3
16 8 33 11 38 5 7 37 132 49 189 2 8 10 40 19 70 9 30 16 55 16 57 0 1 0 3 1
5 0 1 2 9 4 17 1 8 7 33 13 55 6 22 13 51 16 65 2 14 9 36 14 50 5 14 10 27
10 30 0 3 3 17 7 31 3 14 7 32 9 40 1 8 8 34 15 59 7 25 15 52 17 60 2 8 13
53 24 100 12 47 23 92 25 100 2 8 4 15 5 15 1 0 3 7 5 15 6 25 32 130 60 235
14 55 27 107 29 115 2 8 12 44 21 80 9 36 18 70 19 75 1 6 5 15 8 21 4 6 5 53
3 105 -5 114 -6 119 -18 119 -6 0 -7 3 -4 7 4 3 0 15 -10 25 -9 10 -12 18 -8
18 8 0 -31 38 -72 71 -43 35 -173 119 -183 119 -5 0 -10 5 -10 10 0 6 -7 10
-15 10 -8 0 -15 3 -15 8 0 4 -10 12 -23 18 -50 24 -163 87 -176 97 -8 7 -17
12 -20 11 -6 -1 -44 15 -136 57 -58 25 -163 60 -257 85 -5 1 -9 2 -10 4 -2 1
-12 3 -23 5 -35 6 -79 15 -105 22 -14 3 -27 7 -30 8 -3 0 -26 4 -51 8 -50 8
-80 14 -119 22 -14 3 -47 8 -75 11 -27 3 -53 7 -56 9 -3 2 -39 7 -80 11 -41 3
-84 10 -97 15 -16 6 -21 6 -16 -2 4 -8 1 -8 -12 -1 -11 5 -29 8 -42 7 -12 -1
-22 1 -22 4 0 11 -135 5 -157 -7 -33 -18 -94 -126 -109 -194 -1 -5 -3 -11 -4
-15 -2 -5 -4 -12 -5 -18 -2 -5 -4 -12 -5 -15 -1 -3 -3 -12 -5 -20 -2 -8 -7
-26 -10 -40 -3 -14 -8 -36 -11 -50 -3 -14 -7 -32 -9 -40 -6 -21 -17 -82 -18
-97 0 -7 -3 -13 -6 -13 -3 0 -6 -12 -6 -27 -1 -25 -6 -61 -19 -133 -11 -60
-21 -127 -30 -200 -4 -30 -9 -66 -11 -80 -5 -23 -13 -89 -20 -150 -2 -14 -4
-25 -5 -25 -1 0 -3 -20 -5 -45 -2 -25 -4 -45 -5 -45 -2 0 -7 -80 -16 -250 -8
-171 -9 -666 0 -752 4 -40 13 -93 20 -117 8 -25 11 -47 8 -50 -3 -4 0 -6 7 -6
7 0 10 -3 8 -7 -3 -5 3 -28 14 -53 10 -25 18 -40 19 -35 1 6 3 17 4 25 2 8 6
38 10 65 3 28 8 60 10 71 2 12 7 37 10 55 12 71 16 95 23 129 3 19 7 44 9 55
1 11 6 36 9 55 4 19 9 46 10 60 2 14 4 25 5 25 2 0 6 19 14 65 3 19 8 46 11
60 3 14 11 50 16 80 16 77 17 85 19 85 1 0 3 11 6 25 2 14 19 84 36 155 18 72
33 132 33 135 1 3 7 25 14 50 7 25 14 50 15 55 1 6 4 15 7 20 3 6 12 33 19 60
7 28 17 56 23 63 5 6 6 12 3 12 -4 0 -1 10 6 23 6 12 13 28 14 35 1 8 9 28 17
45 8 18 24 53 36 79 25 55 42 71 34 31 -3 -16 -7 -37 -8 -48 -2 -11 -4 -20 -5
-20 -2 0 -5 -15 -15 -65 -10 -50 -13 -65 -15 -65 -1 0 -3 -15 -5 -33 -2 -19
-6 -41 -9 -49 -4 -9 -20 -81 -37 -162 -17 -80 -32 -155 -35 -166 -2 -11 -7
-36 -10 -55 -4 -19 -9 -44 -11 -55 -7 -34 -13 -69 -17 -95 -2 -14 -5 -25 -6
-25 -3 0 -18 -75 -26 -135 -3 -25 -8 -48 -11 -53 -4 -7 -7 -21 -18 -92 -3 -22
-10 -56 -15 -75 -5 -19 -12 -55 -15 -80 -4 -24 -8 -47 -10 -50 -1 -3 -6 -25
-9 -50 -3 -25 -9 -56 -12 -70 -10 -46 -13 -65 -19 -110 -9 -62 -13 -85 -15
-85 -1 0 -3 -11 -5 -25 -1 -14 -7 -52 -14 -85 -6 -33 -13 -78 -16 -100 -3 -22
-8 -49 -10 -61 -5 -25 -14 -76 -19 -119 -2 -16 -6 -41 -9 -55 -4 -14 -8 -43
-11 -65 -5 -40 -11 -81 -22 -152 -12 -84 -20 -146 -29 -233 -3 -25 -7 -61 -10
-80 -6 -38 -9 -68 -30 -300 -24 -274 -30 -402 -29 -655 0 -272 3 -311 39 -510
7 -39 25 -116 33 -135 7 -21 8 -21 17 -55 17 -62 148 -360 164 -375 3 -3 14
-23 24 -45 39 -84 144 -212 243 -296 45 -38 177 -116 237 -140 106 -43 171
-58 275 -66 l72 -5 1 63 c1 101 6 156 14 169 6 9 4 11 -5 5 -9 -5 -11 -4 -6 3
6 11 13 62 21 152 1 19 4 35 5 35 1 0 3 18 5 40 3 40 11 98 20 139 2 12 7 39
10 61 3 22 10 56 15 75 5 19 11 51 14 70 4 29 23 112 52 225 3 11 7 31 10 45
21 99 176 550 213 616 6 11 34 68 62 128 29 60 79 156 111 214 32 57 58 108
58 113 0 5 5 9 10 9 6 0 10 4 10 9 0 5 28 57 62 116 35 58 74 125 87 148 13
23 28 44 32 45 5 2 9 8 9 13 0 9 48 88 60 99 3 3 21 29 38 58 18 30 42 63 52
75 11 11 20 26 20 33 0 7 4 14 8 16 5 2 23 26 42 53 18 28 36 52 40 55 3 3 27
34 53 70 72 98 152 201 183 234 5 6 39 45 74 86 71 83 123 139 285 307 61 63
112 119 113 124 2 5 7 9 11 9 4 0 43 35 87 78 197 192 294 245 302 163 3 -32
-13 -112 -27 -136 -3 -5 -6 -12 -7 -15 -2 -9 -16 -45 -36 -90 -27 -58 -48
-109 -49 -115 0 -2 -7 -28 -16 -57 -26 -95 -34 -123 -39 -148 -3 -14 -10 -43
-16 -65 -6 -22 -12 -47 -13 -55 -2 -8 -8 -35 -14 -60 -11 -43 -15 -59 -26
-107 -3 -13 -7 -31 -9 -40 -16 -61 -58 -253 -62 -278 -3 -16 -9 -43 -14 -60
-5 -16 -11 -45 -14 -62 -4 -18 -8 -48 -11 -65 -3 -18 -9 -40 -12 -48 -3 -8 -7
-24 -8 -35 -1 -11 -10 -56 -19 -100 -9 -44 -18 -90 -21 -103 -2 -13 -6 -31 -9
-40 -3 -9 -8 -32 -11 -50 -3 -18 -12 -65 -21 -105 -8 -39 -18 -83 -20 -97 -3
-14 -7 -33 -10 -42 -3 -10 -7 -30 -10 -45 -2 -16 -7 -39 -10 -53 -8 -36 -13
-61 -19 -95 -3 -16 -9 -46 -12 -65 -4 -19 -6 -38 -5 -42 1 -5 -2 -8 -7 -8 -5
0 -8 -7 -7 -16 1 -9 -4 -48 -12 -88 -7 -39 -15 -82 -17 -96 -2 -14 -8 -54 -14
-90 -5 -36 -13 -85 -16 -110 -3 -25 -7 -63 -10 -85 -27 -208 -25 -501 4 -676
38 -225 135 -429 267 -562 65 -66 217 -187 234 -187 6 0 8 -4 5 -10 -3 -6 -1
-10 5 -10 11 0 58 -31 91 -60 17 -15 91 -67 144 -100 17 -11 72 -47 124 -80
51 -33 95 -60 97 -60 3 0 23 -11 45 -26 58 -36 253 -133 279 -138 3 -1 10 -4
15 -7 6 -4 21 -9 35 -12 25 -6 26 -5 27 46 1 92 18 220 49 377 3 19 8 44 9 55
2 11 4 20 5 20 1 0 58 212 65 245 9 39 104 315 135 390 16 38 26 71 22 74 -3
3 0 6 6 6 7 0 12 9 12 20 0 11 4 20 8 20 5 0 9 6 9 13 0 6 12 38 27 70 14 31
26 60 27 65 0 4 7 14 15 23 8 9 11 19 7 22 -3 4 0 7 7 7 7 0 11 3 7 6 -3 3 26
67 64 141 89 171 92 176 104 185 6 4 7 8 3 8 -9 0 81 152 96 162 6 4 8 8 3 8
-7 0 14 37 36 65 21 27 97 149 97 156 0 5 5 9 10 9 6 0 10 5 10 10 0 6 4 16
10 23 27 33 79 107 90 128 7 12 17 28 22 33 5 6 40 56 78 111 38 55 73 105 78
110 4 6 23 33 42 60 19 28 37 52 42 53 4 2 8 8 8 14 0 5 6 16 13 23 28 32 37
45 32 45 -3 0 3 8 12 18 10 10 25 29 33 42 26 39 253 347 275 373 6 7 24 30
40 52 17 22 32 42 35 45 3 3 23 30 45 60 22 30 44 60 51 65 6 6 35 42 64 80
30 39 68 86 85 105 16 20 46 55 65 79 37 47 61 74 139 161 l50 55 -25 -90
c-14 -49 -27 -99 -29 -110 -3 -11 -16 -65 -31 -120 -14 -55 -27 -107 -29 -115
-2 -8 -15 -60 -29 -115 -13 -55 -27 -111 -30 -125 -2 -14 -12 -56 -21 -95 -9
-38 -18 -74 -19 -80 -2 -5 -6 -28 -11 -50 -15 -77 -23 -110 -25 -110 -1 0 -3
-9 -4 -20 -2 -11 -6 -33 -10 -50 -13 -58 -13 -62 -57 -276 -16 -81 -31 -160
-34 -175 -2 -16 -9 -51 -15 -78 -5 -26 -7 -52 -4 -57 3 -5 1 -9 -3 -9 -5 0
-10 -12 -11 -27 -1 -16 -6 -50 -12 -78 -8 -46 -18 -102 -25 -150 -2 -11 -10
-62 -19 -114 -9 -52 -18 -110 -21 -130 -6 -45 -16 -110 -22 -136 -2 -11 -6
-43 -8 -72 -1 -28 -5 -55 -8 -60 -2 -4 -7 -35 -11 -68 -3 -33 -8 -71 -11 -85
-2 -14 -7 -47 -10 -75 -3 -27 -8 -66 -10 -85 -2 -19 -7 -63 -10 -98 -4 -35 -8
-73 -11 -85 -3 -12 -7 -51 -9 -87 -3 -36 -7 -83 -9 -105 -15 -123 -29 -320
-30 -412 -1 -35 -3 -63 -6 -63 -14 0 -20 -885 -7 -1045 4 -49 10 -119 13 -155
2 -36 7 -81 9 -100 3 -19 7 -62 11 -95 3 -33 7 -71 10 -85 2 -14 7 -42 10 -63
3 -21 7 -44 8 -50 2 -7 6 -34 10 -62 4 -27 10 -57 13 -65 3 -8 7 -24 8 -35 2
-16 27 -123 35 -153 4 -13 8 -27 25 -92 9 -36 28 -96 42 -135 13 -38 26 -78
28 -87 2 -10 10 -32 18 -50 8 -18 30 -67 48 -108 18 -41 46 -97 61 -123 15
-26 28 -51 28 -55 0 -4 16 -30 35 -57 19 -28 41 -59 48 -69 29 -46 130 -156
174 -192 26 -21 50 -41 53 -44 9 -9 63 -39 126 -70 178 -87 417 -89 637 -6 93
36 238 111 245 129 2 4 10 7 18 7 8 0 14 5 14 10 0 6 6 10 14 10 8 0 17 7 20
16 4 9 9 15 12 12 6 -7 50 30 123 103 86 85 151 160 272 314 38 50 75 97 82
105 7 8 21 28 31 45 21 32 32 47 58 75 9 10 14 21 10 24 -3 3 -1 6 4 6 5 0 18
16 28 35 11 19 22 35 26 35 4 0 15 18 26 40 10 22 22 40 25 40 4 0 30 39 60
88 29 48 57 92 61 97 18 22 54 81 65 107 7 16 17 28 23 28 5 0 10 6 10 14 0 7
25 55 55 105 30 50 65 111 76 134 12 23 24 44 28 47 3 3 7 10 8 15 1 6 25 53
52 105 28 52 51 98 51 102 0 4 4 8 8 8 4 0 8 10 9 22 1 11 6 24 10 27 7 5 65
117 68 131 1 3 11 28 24 55 13 28 34 73 46 100 27 57 146 345 150 360 3 12 22
63 35 90 5 11 34 85 65 165 31 80 86 219 122 310 74 188 80 203 81 210 1 3 21
53 46 113 24 59 41 107 38 107 -4 0 -2 4 3 8 11 8 36 69 38 90 0 6 4 12 9 12
4 0 8 8 8 18 0 9 6 28 13 42 7 14 21 46 31 73 10 26 20 47 22 47 2 0 37 -24
77 -53 112 -82 340 -187 459 -211 160 -33 188 -36 308 -36 106 -1 132 2 240
25 41 9 80 18 87 19 7 1 16 5 19 9 4 4 13 7 20 7 7 0 25 5 41 12 15 6 30 12
33 12 33 5 243 126 297 171 7 5 27 21 45 35 89 69 378 386 378 415 0 3 11 18
25 33 14 15 38 45 53 67 15 22 39 54 54 70 16 17 28 34 28 38 0 5 6 15 13 22
36 41 41 48 183 240 8 11 39 54 70 95 66 90 71 96 135 185 69 95 71 98 138
195 32 47 66 93 75 103 9 9 17 20 18 25 1 8 90 144 99 152 3 3 16 23 29 45 13
22 26 42 29 45 10 9 31 45 37 63 4 9 10 17 15 17 5 0 9 4 9 9 0 5 23 46 50 90
28 44 50 85 50 91 0 5 3 10 8 10 4 0 12 10 18 23 23 49 59 112 67 115 4 2 7
12 7 22 0 10 3 20 8 22 17 7 166 328 174 375 2 10 5 20 8 23 15 13 64 201 65
245 2 62 -21 167 -47 218 -23 46 -92 82 -137 72 -23 -5 -75 -65 -55 -65 3 0 2
-6 -3 -12 -5 -7 -20 -42 -33 -78 -13 -36 -31 -81 -41 -100 -9 -19 -17 -38 -18
-42 -1 -7 -100 -198 -140 -273 -38 -68 -105 -180 -111 -185 -4 -3 -14 -19 -23
-35 -14 -29 -117 -189 -134 -210 -4 -5 -21 -30 -38 -55 -121 -181 -489 -681
-507 -688 -4 -2 -8 -9 -8 -15 0 -7 -15 -28 -33 -48 -17 -21 -41 -49 -52 -65
-11 -15 -25 -32 -30 -38 -6 -6 -31 -38 -57 -71 -25 -33 -54 -70 -64 -82 -11
-12 -32 -38 -49 -59 -16 -20 -34 -42 -40 -48 -5 -6 -32 -38 -59 -71 -28 -33
-57 -67 -65 -77 -9 -9 -36 -40 -61 -69 -77 -92 -352 -363 -412 -407 -31 -23
-83 -54 -115 -69 -32 -15 -60 -30 -63 -33 -6 -6 -18 -9 -90 -24 -63 -13 -71
-13 -124 -2 -50 10 -108 69 -130 131 -8 26 -13 51 -11 56 3 4 1 10 -5 14 -6 3
-10 18 -10 33 1 15 1 63 1 107 0 76 5 160 9 160 1 0 4 18 6 40 7 62 12 90 14
90 2 0 4 11 5 25 4 39 42 205 71 305 14 49 26 97 27 107 1 10 5 18 10 18 4 0
6 4 3 8 -3 5 2 27 10 51 8 23 16 50 18 59 1 9 6 24 9 32 6 16 55 183 62 210 2
8 13 44 25 80 12 36 23 72 25 80 2 8 4 17 5 20 1 3 3 10 4 15 2 16 112 358
132 410 4 11 8 26 10 33 1 7 28 90 59 185 32 95 58 177 60 182 1 6 5 18 9 27
4 9 9 22 10 30 2 7 6 20 9 28 5 15 60 180 62 190 1 3 4 12 8 20 8 22 81 243
83 255 1 6 8 24 15 40 6 17 13 35 14 40 2 6 84 255 185 555 100 300 183 553
185 562 2 9 9 27 16 40 7 13 11 23 9 23 -3 0 46 167 57 195 3 8 7 20 8 25 2 6
12 42 24 81 30 100 28 140 -10 199 -42 66 -172 194 -289 286 -52 40 -98 78
-102 84 -5 6 -8 6 -8 0 0 -6 -3 -6 -8 1 -11 16 -106 79 -114 76 -5 -1 -8 2 -8
8 0 5 -18 20 -41 32 -22 13 -54 30 -70 39 -16 9 -36 22 -44 29 -8 7 -15 9 -15
5 0 -4 -6 -3 -12 3 -14 10 -139 76 -148 77 -5 0 -46 16 -105 40 -33 14 -125
42 -165 51 -14 3 -63 7 -110 10 -70 3 -97 0 -155 -19z"/>
</g>
</svg>
